#!OML:ASF E:\emotionWalksFemale\Project 1\Capture day 1\Session 1\Female1.ASF
:FULLY-SPECIFIED
:DEGREES
911
root 9.89382 15.1041 -25.6559 -181.063 -9.40252 -172.638
lowerback 8.04649 1.88495 1.09749
upperback -1.33624 2.14076 -5.02384
thorax -5.68807 0.848825 -6.17814
lowerneck -16.0746 8.05088 -1.77484
upperneck 4.55683 10.7274 3.15328
head 3.63778 5.42215 2.0379
rclavicle 3.6477e-014 -7.31528e-014
rhumerus -29.7419 43.3401 -119.451
rradius 42.443
rwrist 16.2342
rhand -6.96063 -52.5336
rfingers 7.12502
rthumb 18.9087 -441.635
lclavicle 3.6477e-014 -7.31528e-014
lhumerus -60.6836 -63.1247 147.889
lradius 104.349
lwrist 30.5292
lhand 21.1312 -26.2599
lfingers 7.12502
lthumb 45.5874 -2.99549
rfemur -4.85491 8.59654 37.7459
rtibia 27.0986
rfoot -17.6102 -18.3948
rtoes 6.52613
lfemur -35.2412 -2.46276 -16.0566
ltibia 52.8106
lfoot -19.1611 9.08816
ltoes 4.40243
912
root 9.87957 15.1114 -25.7753 -181.067 -9.27274 -172.6
lowerback 8.32006 1.84957 1.24328
upperback -1.59842 2.10368 -4.99462
thorax -6.12162 0.81323 -6.25172
lowerneck -15.4948 8.18606 -1.59107
upperneck 3.95367 10.9149 2.70198
head 3.80476 5.48264 2.05632
rclavicle 3.18055e-015 1.24042e-013
rhumerus -30.3595 43.0962 -119.941
rradius 42.561
rwrist 16.9217
rhand -6.18952 -52.8334
rfingers 7.12502
rthumb 19.6502 -441.86
lclavicle 3.18055e-015 1.24042e-013
lhumerus -61.7048 -62.6939 148.671
lradius 104.45
lwrist 30.5762
lhand 21.0233 -26.3789
lfingers 7.12502
lthumb 45.4871 -3.07384
rfemur -3.94678 8.5398 37.8776
rtibia 26.3981
rfoot -17.6151 -18.3414
rtoes 6.68467
lfemur -35.2698 -2.50194 -16.1681
ltibia 50.6221
lfoot -18.8255 9.2779
ltoes 3.93741
913
root 9.86872 15.1192 -25.8913 -180.994 -9.14146 -172.563
lowerback 8.34589 1.81386 1.37232
upperback -1.75302 2.0663 -5.00162
thorax -6.30022 0.783478 -6.33694
lowerneck -15.5935 8.35245 -1.4917
upperneck 4.58473 11.1041 2.90039
head 3.59084 5.60179 1.92468
rclavicle 2.80783e-014 2.22639e-014
rhumerus -30.7569 43.0313 -120.411
rradius 42.6815
rwrist 17.4787
rhand -6.43733 -53.3118
rfingers 7.12502
rthumb 19.4119 -442.363
lclavicle 2.80783e-014 2.22639e-014
lhumerus -62.4467 -62.4545 149.155
lradius 104.558
lwrist 30.4919
lhand 20.7465 -26.3478
lfingers 7.12502
lthumb 45.2298 -2.93934
rfemur -3.17887 8.51594 38.0054
rtibia 25.6933
rfoot -17.382 -18.3123
rtoes 7.02996
lfemur -35.3597 -2.60341 -16.2259
ltibia 48.4719
lfoot -18.5807 9.41716
ltoes 1.87305
914
root 9.8567 15.1294 -26.0099 -180.951 -8.91552 -172.457
lowerback 8.00577 1.80143 1.50684
upperback -1.60646 2.08387 -4.93561
thorax -5.94585 0.803863 -6.32144
lowerneck -16.0477 8.43076 -1.53645
upperneck 4.7813 11.2174 2.87413
head 3.71739 5.65386 1.95886
rclavicle -3.17062e-014 -5.40694e-014
rhumerus -30.5377 43.2975 -120.33
rradius 42.8026
rwrist 18.1379
rhand -6.67377 -53.8863
rfingers 7.12502
rthumb 19.1846 -442.96
lclavicle -3.17062e-014 -5.40694e-014
lhumerus -62.1956 -62.7116 148.874
lradius 104.596
lwrist 30.5319
lhand 20.953 -26.3121
lfingers 7.12502
lthumb 45.4218 -2.98065
rfemur -2.37552 8.47356 38.2125
rtibia 25.0411
rfoot -16.9365 -18.29
rtoes 6.78687
lfemur -35.3663 -2.77313 -16.1344
ltibia 46.4059
lfoot -18.5965 9.33681
ltoes 1.53582
915
root 9.8463 15.1332 -26.1315 -180.98 -8.62971 -172.466
lowerback 8.01251 1.80775 1.40157
upperback -1.64314 2.09042 -4.84563
thorax -5.9944 0.812781 -6.16708
lowerneck -16.0412 8.52264 -1.3935
upperneck 4.81702 11.3326 2.65202
head 3.74519 5.70016 1.88065
rclavicle 1.91827e-014 9.54166e-015
rhumerus -30.7618 43.5112 -120.524
rradius 42.9301
rwrist 18.7334
rhand -6.7284 -54.5682
rfingers 7.12502
rthumb 19.132 -443.647
lclavicle 1.91827e-014 9.54166e-015
lhumerus -62.2895 -62.6083 148.9
lradius 104.655
lwrist 30.6642
lhand 21.3129 -26.3885
lfingers 7.12502
lthumb 45.7561 -3.19314
rfemur -1.45 8.5163 38.341
rtibia 24.4086
rfoot -16.3676 -18.2904
rtoes 6.20478
lfemur -35.256 -3.04367 -16.1024
ltibia 44.4609
lfoot -18.5748 9.22781
ltoes 3.55885
916
root 9.83355 15.1318 -26.2544 -181 -8.34538 -172.429
lowerback 7.81216 1.80031 1.35866
upperback -1.59603 2.09335 -4.73801
thorax -5.83496 0.82586 -6.01532
lowerneck -16.0396 8.69252 -1.41922
upperneck 4.78274 11.5692 2.59618
head 3.73003 5.81328 1.88258
rclavicle -3.53837e-014 0
rhumerus -31.0196 44.0046 -120.817
rradius 43.0399
rwrist 19.0596
rhand -7.29077 -55.6337
rfingers 7.12502
rthumb 18.5911 -444.765
lclavicle -3.53837e-014 0
lhumerus -62.3247 -62.6311 148.85
lradius 104.771
lwrist 30.6782
lhand 21.1869 -26.4106
lfingers 7.12502
lthumb 45.6391 -3.16728
rfemur -0.58072 8.60133 38.4729
rtibia 23.7691
rfoot -16.0005 -18.1386
rtoes 6.41871
lfemur -35.141 -3.38773 -16.023
ltibia 42.6491
lfoot -18.6853 9.41336
ltoes 2.31117
917
root 9.81573 15.1299 -26.3707 -181.009 -8.11272 -172.263
lowerback 7.53691 1.76379 1.58171
upperback -1.48434 2.08928 -4.63618
thorax -5.55625 0.83186 -6.01568
lowerneck -14.6647 8.79374 -0.540998
upperneck 3.00312 11.6453 1.07534
head 3.45312 5.77916 1.31436
rclavicle 3.22031e-014 8.5875e-014
rhumerus -31.2916 44.8742 -121.21
rradius 43.2123
rwrist 18.3755
rhand -9.00819 -57.1584
rfingers 7.12502
rthumb 16.9386 -446.44
lclavicle 3.22031e-014 8.5875e-014
lhumerus -62.3637 -62.6933 148.731
lradius 104.889
lwrist 30.5075
lhand 21.1046 -26.4996
lfingers 7.12502
lthumb 45.5627 -3.22517
rfemur 0.221217 8.59011 38.6797
rtibia 23.1303
rfoot -15.8972 -17.9307
rtoes 6.42484
lfemur -35.0465 -3.88465 -15.7837
ltibia 40.9786
lfoot -18.6807 10.2852
ltoes -5.6903
918
root 9.80028 15.1305 -26.4826 -181.054 -7.96486 -172.287
lowerback 7.78982 1.7123 1.62277
upperback -1.62382 2.02329 -4.60358
thorax -5.85497 0.789386 -6.01472
lowerneck -14.9018 8.75693 -0.756636
upperneck 3.40564 11.6228 1.35872
head 3.6101 5.77817 1.47075
rclavicle 2.48481e-014 -6.04305e-014
rhumerus -31.3945 44.7045 -121.272
rradius 43.2313
rwrist 19.7224
rhand -7.46239 -57.6816
rfingers 7.12502
rthumb 18.4261 -446.829
lclavicle 2.48481e-014 -6.04305e-014
lhumerus -62.9744 -61.9593 148.947
lradius 104.982
lwrist 30.2119
lhand 21.573 -26.8097
lfingers 7.12502
lthumb 45.9975 -3.71411
rfemur 1.07113 8.50724 38.7197
rtibia 22.4957
rfoot -15.722 -17.8192
rtoes 6.20527
lfemur -34.8898 -4.7345 -15.6121
ltibia 39.4659
lfoot -18.1618 11.9728
ltoes -17.9507
919
root 9.78397 15.1384 -26.6048 -181.072 -7.62673 -172.456
lowerback 7.69835 1.71026 1.4126
upperback -1.62602 2.00507 -4.53651
thorax -5.8163 0.790397 -5.81593
lowerneck -15.1903 8.79975 -1.07967
upperneck 3.7083 11.7216 1.65227
head 3.73237 5.83538 1.65671
rclavicle 6.16232e-015 -4.45278e-014
rhumerus -31.4946 44.925 -121.348
rradius 43.2183
rwrist 20.6091
rhand -6.7251 -57.9766
rfingers 7.12502
rthumb 19.1352 -447.055
lclavicle 6.16232e-015 -4.45278e-014
lhumerus -62.9384 -62.2204 149.164
lradius 104.953
lwrist 30.3788
lhand 21.2483 -26.6636
lfingers 7.12502
lthumb 45.6961 -3.44364
rfemur 2.00466 8.54721 38.6155
rtibia 21.8271
rfoot -15.3065 -17.7576
rtoes 7.30208
lfemur -34.6452 -5.70324 -15.4467
ltibia 38.1817
lfoot -19.3217 12.6371
ltoes -12.8296
920
root 9.76802 15.1362 -26.7136 -181.189 -7.5619 -172.351
lowerback 7.53646 1.59014 1.50544
upperback -1.43503 1.87654 -4.41147
thorax -5.53735 0.73974 -5.70575
lowerneck -15.1381 8.97714 -1.10081
upperneck 3.53136 11.9598 1.61477
head 3.65464 5.95118 1.65344
rclavicle 3.26007e-014 5.08889e-014
rhumerus -31.1442 45.1884 -121.096
rradius 43.2085
rwrist 21.4838
rhand -6.21796 -58.3325
rfingers 7.12502
rthumb 19.6228 -447.362
lclavicle 3.26007e-014 5.08889e-014
lhumerus -62.4467 -62.2981 148.689
lradius 104.962
lwrist 30.1746
lhand 21.5504 -26.6591
lfingers 7.12502
lthumb 45.9765 -3.55481
rfemur 2.85936 8.46627 38.8306
rtibia 21.2354
rfoot -14.7333 -17.9999
rtoes 10.1105
lfemur -34.4874 -6.98254 -14.9084
ltibia 37.0901
lfoot -20.1115 13.3886
ltoes -10.0809
921
root 9.74554 15.1254 -26.8303 -181.393 -7.29704 -171.99
lowerback 7.89036 1.58827 2.04194
upperback -1.60288 1.94309 -4.3063
thorax -5.89521 0.750819 -5.93175
lowerneck -14.2864 9.07739 -0.783444
upperneck 3.08586 12.066 1.22229
head 3.37745 5.99632 1.40972
rclavicle 1.09829e-014 -4.13472e-014
rhumerus -31.3799 44.7873 -121.24
rradius 43.2133
rwrist 22.1135
rhand -5.9668 -58.8015
rfingers 7.12502
rthumb 19.8643 -447.806
lclavicle 1.09829e-014 -4.13472e-014
lhumerus -63.1918 -62.0207 149.278
lradius 105.054
lwrist 30.1098
lhand 21.5224 -26.3545
lfingers 7.12502
lthumb 45.9506 -3.23938
rfemur 3.76935 8.5206 39.3688
rtibia 20.7086
rfoot -14.3998 -18.1083
rtoes 11.764
lfemur -34.2627 -8.127 -14.0442
ltibia 36.2029
lfoot -20.5906 14.7683
ltoes -11.8018
